<svg width="35" height="35" viewBox="0 0 35 35" fill="none" xmlns="http://www.w3.org/2000/svg">
<path d="M14.5833 0V4.16316L17.5 6.61316V3.68421H32.0833V31.3158H24.7917V35H35V0H14.5833ZM10.9375 5.52632L0 14.7368V35H21.875V14.7368L10.9375 5.52632ZM20.4167 7.36842V9.08158L22.7646 11.0526H23.3333V7.36842H20.4167ZM26.25 7.36842V11.0526H29.1667V7.36842H26.25ZM10.9375 10.1316L18.9583 16.5789V31.3158H14.5833V20.2632H7.29167V31.3158H2.91667V16.5789L10.9375 10.1316ZM26.25 14.7368V18.4211H29.1667V14.7368H26.25ZM26.25 22.1053V25.7895H29.1667V22.1053H26.25Z" fill="#3056D3"/>
</svg>
