<svg width="57" height="54" viewBox="0 0 57 54" fill="none" xmlns="http://www.w3.org/2000/svg">
<path d="M49.8121 0H7.18789C3.21813 0 0 3.22355 0 7.2V46.8C0 50.7764 3.21813 54 7.18789 54H49.8121C53.7819 54 57 50.7764 57 46.8V7.2C57 3.22355 53.7819 0 49.8121 0Z" fill="#111A2B"/>
<path d="M36.2019 45.0446L44.5948 8.95345L49.7663 8.95517L41.1388 45.0462L36.2019 45.0446Z" fill="#FBD100"/>
<path d="M49.7432 8.9732L44.6088 8.97149L36.2244 45.0266L41.1244 45.0282L49.7432 8.9732ZM49.7888 8.93721L41.1527 45.0643L36.1791 45.0626L44.5803 8.93548L49.7888 8.93721Z" fill="#707070"/>
<path d="M15.8995 45.0441L25.9058 8.95399L31.0764 8.95571L20.7456 45.0457L15.8995 45.0441Z" fill="#08C420"/>
<path d="M31.0522 8.9737L25.9192 8.97199L15.9228 45.0261L20.7317 45.0277L31.0522 8.9737ZM31.0999 8.93771L20.7589 45.0637L15.8755 45.0621L25.8919 8.93598L31.0999 8.93771Z" fill="#707070"/>
<path d="M31.0667 8.92861L38.2457 36.3934L36.2106 45.0412L28.6339 17.4781L31.0667 8.92861Z" fill="#FB3329"/>
<path d="M36.2092 44.9683L38.2271 36.3935L31.0659 8.99674L28.6526 17.478L36.2092 44.9683ZM36.2119 45.1138L28.6153 17.4779L31.0674 8.86013L38.2642 36.393L36.2119 45.1138Z" fill="#707070"/>
<path d="M7.11577 8.87127L12.036 8.87279L18.2578 36.5568L15.8807 45L7.11577 8.87127Z" fill="#1996E5"/>
<path d="M15.8831 44.893L18.2202 36.5751L12.0995 8.80662L7.15289 8.82235L15.8831 44.893ZM15.8804 45.036L7.10696 8.7866L12.1287 8.77062L18.2574 36.576L15.8804 45.036Z" fill="#707070"/>
</svg>
