<svg width="35" height="35" viewBox="0 0 35 35" fill="none" xmlns="http://www.w3.org/2000/svg">
<path d="M17.5 0C19.7981 0 22.0738 0.452651 24.197 1.33211C26.3202 2.21157 28.2493 3.50061 29.8744 5.12563C31.4994 6.75066 32.7884 8.67984 33.6679 10.803C34.5473 12.9262 35 15.2019 35 17.5C35 22.1413 33.1563 26.5925 29.8744 29.8744C26.5925 33.1563 22.1413 35 17.5 35C15.2019 35 12.9262 34.5473 10.803 33.6679C8.67984 32.7884 6.75066 31.4994 5.12563 29.8744C1.84374 26.5925 0 22.1413 0 17.5C0 12.8587 1.84374 8.40752 5.12563 5.12563C8.40752 1.84374 12.8587 0 17.5 0ZM17.5 3.5C13.787 3.5 10.226 4.975 7.60051 7.60051C4.975 10.226 3.5 13.787 3.5 17.5C3.5 21.213 4.975 24.774 7.60051 27.3995C10.226 30.025 13.787 31.5 17.5 31.5C21.213 31.5 24.774 30.025 27.3995 27.3995C30.025 24.774 31.5 21.213 31.5 17.5C31.5 13.787 30.025 10.226 27.3995 7.60051C24.774 4.975 21.213 3.5 17.5 3.5ZM15.75 26.25V24.5H12.25V21H19.25V19.25H14C13.5359 19.25 13.0908 19.0656 12.7626 18.7374C12.4344 18.4092 12.25 17.9641 12.25 17.5V12.25C12.25 11.7859 12.4344 11.3408 12.7626 11.0126C13.0908 10.6844 13.5359 10.5 14 10.5H15.75V8.75H19.25V10.5H22.75V14H15.75V15.75H21C21.4641 15.75 21.9092 15.9344 22.2374 16.2626C22.5656 16.5908 22.75 17.0359 22.75 17.5V22.75C22.75 23.2141 22.5656 23.6592 22.2374 23.9874C21.9092 24.3156 21.4641 24.5 21 24.5H19.25V26.25H15.75Z" fill="#3056D3"/>
</svg>
