<svg width="579" height="9" viewBox="0 0 579 9" fill="none" xmlns="http://www.w3.org/2000/svg">
<path fill-rule="evenodd" clip-rule="evenodd" d="M93.3695 8.64783C14.9168 8.64783 1.04492 1.92655 1.04492 1.92655L290.521 0.96637L578.074 1.92655C578.074 1.92655 564.239 8.64783 485.749 8.64783H290.521H93.3695Z" fill="url(#paint0_linear)"/>
<path d="M1.04492 1.92655L1.04377 1.58056L0.894057 2.23792L1.04492 1.92655ZM290.521 0.96637L290.522 0.620374L290.52 0.620382L290.521 0.96637ZM578.074 1.92655L578.225 2.23776L578.075 1.58056L578.074 1.92655ZM1.04492 1.92655C0.894057 2.23792 0.894447 2.23811 0.89489 2.23832C0.895108 2.23843 0.895603 2.23866 0.896039 2.23887C0.896912 2.23929 0.897998 2.23981 0.899299 2.24043C0.901902 2.24166 0.905369 2.24329 0.909724 2.24531C0.918432 2.24935 0.930695 2.25494 0.946701 2.26205C0.978713 2.27627 1.02572 2.29652 1.08925 2.32242C1.2163 2.37422 1.40956 2.44863 1.68133 2.54242C2.22479 2.72997 3.08298 2.99531 4.3545 3.31246C6.89718 3.94666 11.0968 4.78902 17.744 5.63044C31.0379 7.31321 54.1347 8.99382 93.3695 8.99382V8.30184C54.1517 8.30184 31.0861 6.62181 17.8309 4.94394C11.2036 4.10504 7.0319 3.26708 4.52196 2.64105C3.26717 2.32807 2.4287 2.06831 1.90708 1.8883C1.64632 1.7983 1.46494 1.72831 1.35048 1.68165C1.29325 1.65832 1.25279 1.64083 1.22752 1.62961C1.21488 1.624 1.20605 1.61996 1.20083 1.61754C1.19822 1.61633 1.19651 1.61552 1.19567 1.61513C1.19526 1.61493 1.19506 1.61484 1.19508 1.61485C1.19509 1.61485 1.19527 1.61493 1.19527 1.61494C1.1955 1.61505 1.19579 1.61519 1.04492 1.92655ZM290.52 0.620382L1.04377 1.58056L1.04607 2.27254L290.522 1.31236L290.52 0.620382ZM290.52 1.31236L578.072 2.27254L578.075 1.58056L290.522 0.620382L290.52 1.31236ZM578.074 1.92655C577.922 1.61534 577.923 1.61521 577.923 1.61509C577.923 1.61509 577.923 1.615 577.923 1.615C577.923 1.61499 577.923 1.61508 577.922 1.61528C577.922 1.61567 577.92 1.61647 577.917 1.61768C577.912 1.6201 577.903 1.62413 577.891 1.62974C577.866 1.64095 577.825 1.65843 577.768 1.68175C577.654 1.72839 577.473 1.79837 577.213 1.88836C576.692 2.06836 575.855 2.3281 574.602 2.64107C572.095 3.26709 567.926 4.10504 561.301 4.94394C548.051 6.62181 524.985 8.30184 485.749 8.30184V8.99382C525.002 8.99382 548.099 7.31321 561.388 5.63044C568.033 4.78902 572.229 3.94665 574.769 3.31243C576.039 2.99528 576.896 2.72993 577.439 2.54236C577.71 2.44855 577.903 2.37413 578.03 2.32232C578.093 2.29642 578.14 2.27615 578.172 2.26193C578.188 2.25481 578.2 2.24921 578.209 2.24517C578.213 2.24315 578.217 2.24151 578.219 2.24028C578.221 2.23966 578.222 2.23914 578.223 2.23872C578.223 2.23851 578.224 2.23827 578.224 2.23816C578.224 2.23795 578.225 2.23776 578.074 1.92655ZM485.749 8.30184H290.521V8.99382H485.749V8.30184ZM93.3695 8.99382H290.521V8.30184H93.3695V8.99382Z" fill="#D3D8E0"/>
<defs>
<linearGradient id="paint0_linear" x1="1.04492" y1="0.96637" x2="1.04492" y2="8.64783" gradientUnits="userSpaceOnUse">
<stop stop-color="white"/>
<stop offset="1" stop-color="#CDCBD5"/>
</linearGradient>
</defs>
</svg>
