<svg width="35" height="35" viewBox="0 0 35 35" fill="none" xmlns="http://www.w3.org/2000/svg">
<path d="M19.6247 35L16.7989 28.3606C19.5207 27.3551 22.0691 26.003 24.4268 24.4255L19.6247 35ZM6.6398 18.2021L0 15.3764L10.5751 10.5745C8.99753 12.9321 7.6453 15.4804 6.6398 18.2021ZM30.1825 3.46706C30.6679 3.46706 31.1013 3.46706 31.4654 3.55374C31.7601 5.96335 31.4307 10.9212 25.7444 16.6072C22.7972 19.5716 19.278 21.8425 15.3253 23.3507L11.598 19.7103C13.1929 15.7058 15.464 12.1867 18.3938 9.25706C23.1786 4.47251 27.4433 3.46706 30.1825 3.46706ZM30.1825 0C26.7499 0 21.549 1.19614 15.9321 6.81278C12.1354 10.6092 9.86435 14.787 8.39076 18.4448C7.90535 19.7449 8.23474 21.1664 9.18823 22.1372L12.8809 25.8123C13.5396 26.471 14.4238 26.8697 15.3426 26.8697C15.7414 26.8697 16.1574 26.7657 16.5562 26.6097C20.2661 25.1882 24.3922 22.8653 28.1888 19.0688C38.0011 9.25706 34.3259 0.676077 34.3259 0.676077C34.3259 0.676077 32.7482 0 30.1825 0ZM22.0691 12.9321C20.7169 11.58 20.7169 9.37841 22.0691 8.02625C23.4213 6.6741 25.623 6.6741 26.9753 8.02625C28.3102 9.37841 28.3275 11.58 26.9753 12.9321C25.623 14.2843 23.4213 14.2843 22.0691 12.9321ZM7.67998 34.6706L13.9904 28.3606C13.401 28.2046 12.8289 27.9445 12.3088 27.5805L5.23556 34.6706H7.67998ZM0.32939 34.6706H2.77381L11.0432 26.419L8.58146 23.9747L0.32939 32.2263V34.6706ZM0.32939 29.7647L7.41993 22.6919C7.05587 22.1719 6.79583 21.6171 6.6398 21.0104L0.32939 27.3205V29.7647Z" fill="#3056D3"/>
</svg>
