<svg width="520" height="351" viewBox="0 0 520 351" fill="none" xmlns="http://www.w3.org/2000/svg">
<g filter="url(#filter0_di)">
<path fill-rule="evenodd" clip-rule="evenodd" d="M17.0439 24.7632C17.0439 16.6684 23.6061 10.1062 31.7009 10.1062H488.053C496.148 10.1062 502.71 16.6684 502.71 24.7632V312.309C502.71 320.404 496.148 326.966 488.053 326.966H31.7009C23.6061 326.966 17.0439 320.404 17.0439 312.309V24.7632Z" fill="white"/>
<path fill-rule="evenodd" clip-rule="evenodd" d="M17.0439 24.7632C17.0439 16.6684 23.6061 10.1062 31.7009 10.1062H488.053C496.148 10.1062 502.71 16.6684 502.71 24.7632V312.309C502.71 320.404 496.148 326.966 488.053 326.966H31.7009C23.6061 326.966 17.0439 320.404 17.0439 312.309V24.7632Z" stroke="#D3D8E0"/>
</g>
<defs>
<filter id="filter0_di" x="0.543945" y="0.606201" width="518.666" height="349.86" filterUnits="userSpaceOnUse" color-interpolation-filters="sRGB">
<feFlood flood-opacity="0" result="BackgroundImageFix"/>
<feColorMatrix in="SourceAlpha" type="matrix" values="0 0 0 0 0 0 0 0 0 0 0 0 0 0 0 0 0 0 127 0"/>
<feOffset dy="7"/>
<feGaussianBlur stdDeviation="8"/>
<feColorMatrix type="matrix" values="0 0 0 0 0 0 0 0 0 0 0 0 0 0 0 0 0 0 0.05 0"/>
<feBlend mode="normal" in2="BackgroundImageFix" result="effect1_dropShadow"/>
<feBlend mode="normal" in="SourceGraphic" in2="effect1_dropShadow" result="shape"/>
<feColorMatrix in="SourceAlpha" type="matrix" values="0 0 0 0 0 0 0 0 0 0 0 0 0 0 0 0 0 0 127 0" result="hardAlpha"/>
<feOffset dy="1"/>
<feGaussianBlur stdDeviation="0.5"/>
<feComposite in2="hardAlpha" operator="arithmetic" k2="-1" k3="1"/>
<feColorMatrix type="matrix" values="0 0 0 0 1 0 0 0 0 1 0 0 0 0 1 0 0 0 1 0"/>
<feBlend mode="normal" in2="shape" result="effect2_innerShadow"/>
</filter>
</defs>
</svg>
