<svg width="40" height="40" viewBox="0 0 40 40" fill="none" xmlns="http://www.w3.org/2000/svg">
<ellipse cx="20" cy="20" rx="20" ry="20" fill="#7294C7"/>
<path d="M29.8065 25.1153C29.8065 25.0323 29.7235 25.0323 29.7235 24.9493C29.3914 24.2851 28.6442 23.4549 27.6479 22.5416C27.1498 22.1265 26.9007 21.7944 26.7347 21.6284C26.4856 21.2963 26.4856 21.0472 26.5686 20.7151C26.6517 20.466 26.9837 20.0509 27.5649 19.3037C27.897 18.8886 28.063 18.6395 28.3121 18.3905C29.5574 16.73 30.1386 15.6507 29.9726 15.1526L29.8896 15.0695C29.8065 14.9865 29.7235 14.9035 29.5574 14.9035C29.3914 14.8205 29.1423 14.8205 28.8933 14.9035H25.7384C25.6554 14.9035 25.6554 14.9035 25.4893 14.9035C25.4063 14.9035 25.3233 14.9035 25.3233 14.9035H25.2403H25.1572L25.0742 14.9865C24.9912 15.0695 24.9912 15.0695 24.9912 15.1526C24.6591 16.0658 24.244 16.813 23.8289 17.6433C23.5798 18.0584 23.3307 18.4735 23.0817 18.8056C22.8326 19.1377 22.6665 19.3867 22.5005 19.5528C22.3344 19.7188 22.1684 19.8018 22.0854 19.9679C22.0024 20.0509 21.8363 20.1339 21.8363 20.0509C21.7533 20.0509 21.6703 20.0509 21.6703 19.9679C21.5872 19.8849 21.5042 19.8018 21.4212 19.7188C21.3382 19.6358 21.3382 19.4698 21.2551 19.3037C21.2551 19.1377 21.2551 18.9716 21.2551 18.8886C21.2551 18.8056 21.2551 18.5565 21.2551 18.3905C21.2551 18.1414 21.2551 17.9753 21.2551 17.8923C21.2551 17.6433 21.2551 17.3112 21.2551 16.9791C21.2551 16.647 21.2551 16.3979 21.2551 16.2319C21.2551 16.0658 21.2551 15.8168 21.2551 15.6507C21.2551 15.4016 21.2551 15.2356 21.2551 15.1526C21.2551 15.0695 21.1721 14.9035 21.1721 14.8205C21.0891 14.7375 21.0061 14.6544 20.9231 14.5714C20.84 14.4884 20.674 14.4884 20.591 14.4054C20.1759 14.3223 19.6777 14.2393 19.0966 14.2393C17.7682 14.2393 16.8549 14.3223 16.5228 14.4884C16.3568 14.5714 16.1908 14.6544 16.1077 14.8205C15.9417 14.9865 15.9417 15.0695 16.0247 15.0695C16.4398 15.1526 16.7719 15.3186 16.938 15.5677L17.021 15.7337C17.104 15.8168 17.104 15.9828 17.187 16.2319C17.27 16.4809 17.27 16.73 17.27 17.0621C17.27 17.5602 17.27 18.0584 17.27 18.3905C17.27 18.8056 17.187 19.0546 17.187 19.3037C17.187 19.5528 17.104 19.7188 17.021 19.8019C16.938 19.9679 16.938 20.0509 16.8549 20.0509C16.8549 20.0509 16.8549 20.1339 16.7719 20.1339C16.6889 20.1339 16.6059 20.217 16.4398 20.217C16.3568 20.217 16.1908 20.1339 16.1077 20.0509C15.9417 19.9679 15.7756 19.8019 15.6926 19.6358C15.5266 19.4698 15.3605 19.2207 15.1945 18.8886C15.0284 18.5565 14.7793 18.2244 14.6133 17.7263L14.4473 17.3942C14.3642 17.2281 14.1982 16.896 14.0322 16.4809C13.8661 16.0658 13.7001 15.7337 13.534 15.3186C13.451 15.1526 13.368 15.0695 13.285 14.9865H13.2019C13.2019 14.9865 13.1189 14.9035 13.0359 14.9035C12.9528 14.9035 12.8698 14.8205 12.7868 14.8205H9.79798C9.46588 14.8205 9.29984 14.9035 9.21682 14.9865L9.13379 15.0695C9.13379 15.0695 9.13379 15.1526 9.13379 15.2356C9.13379 15.3186 9.13379 15.4016 9.21682 15.5677C9.63193 16.564 10.1301 17.5602 10.6282 18.5565C11.1263 19.4698 11.6245 20.3 11.9566 20.8812C12.3717 21.4623 12.7038 22.0435 13.1189 22.5416C13.534 23.0397 13.7831 23.3718 13.8661 23.5379C14.0321 23.7039 14.1152 23.7869 14.1982 23.87L14.4473 24.119C14.6133 24.2851 14.8624 24.5342 15.1945 24.7832C15.5266 25.0323 15.9417 25.2814 16.3568 25.5304C16.7719 25.7795 17.2701 25.9456 17.7682 26.1116C18.3494 26.2776 18.8475 26.3607 19.3456 26.2776H20.591C20.84 26.2776 21.0061 26.1946 21.1721 26.0286L21.2551 25.9455C21.2551 25.8625 21.3382 25.8625 21.3382 25.7795C21.3382 25.6965 21.3382 25.6135 21.3382 25.4474C21.3382 25.1153 21.3382 24.8663 21.4212 24.6172C21.5042 24.3681 21.5042 24.2021 21.5873 24.036C21.6703 23.87 21.7533 23.7869 21.8363 23.7039C21.9193 23.6209 22.0024 23.5379 22.0024 23.5379H22.0854C22.2514 23.4549 22.5005 23.5379 22.6665 23.7039C22.9156 23.87 23.1647 24.119 23.3307 24.3681C23.4968 24.6172 23.7459 24.8663 24.0779 25.1983C24.41 25.5304 24.6591 25.7795 24.8251 25.8625L25.0742 26.0286C25.2403 26.1116 25.4063 26.1946 25.6554 26.2776C25.9044 26.3607 26.0705 26.3607 26.2365 26.3607L29.0593 26.2776C29.3084 26.2776 29.5575 26.1946 29.7235 26.1116C29.8895 26.0286 29.9726 25.9455 29.9726 25.7795C29.9726 25.6965 29.9726 25.5304 29.9726 25.4474C29.8065 25.2814 29.8065 25.1983 29.8065 25.1153Z" fill="white"/>
</svg>
