<svg width="22" height="20" viewBox="0 0 22 20" fill="none" xmlns="http://www.w3.org/2000/svg">
<path d="M21.4017 0.10928C21.306 0.0252928 21.1697 0.00580723 21.0542 0.0593764L0.186064 9.75533C0.0737169 9.80754 0.00136969 9.91963 1.92051e-05 10.0435C-0.00133128 10.1674 0.0686365 10.281 0.17989 10.3356L6.08555 13.2338C6.19384 13.287 6.32297 13.275 6.41969 13.2027L12.1616 8.91115L7.65397 13.5478C7.58966 13.614 7.55686 13.7046 7.56394 13.7965L8.01275 19.6415C8.02271 19.771 8.10953 19.8818 8.23294 19.9223C8.26593 19.9331 8.29982 19.9384 8.33332 19.9384C8.42522 19.9384 8.51461 19.899 8.5768 19.827L11.7113 16.1947L15.5862 18.0461C15.6704 18.0863 15.7677 18.088 15.8532 18.0508C15.9387 18.0136 16.0037 17.9412 16.0316 17.8523L21.4965 0.447351C21.5347 0.325807 21.4974 0.193267 21.4017 0.10928Z" fill="white"/>
</svg>
