<svg width="34" height="27" viewBox="0 0 34 27" fill="none" xmlns="http://www.w3.org/2000/svg">
<path fill-rule="evenodd" clip-rule="evenodd" d="M13.863 2.07692C12.4383 0.692301 10.7032 0 8.65753 0C6.5388 0 4.7854 0.710519 3.39726 2.13158C2.00913 3.55264 1.31507 5.3927 1.31507 7.65182C1.31507 10.4211 2.41095 12.5344 4.60274 13.9919L0 27H7.12329L14.0274 13.7733C14.6849 12.5344 15.1781 11.4777 15.5068 10.6032C15.8356 9.72874 16 8.74494 16 7.65182C16 5.31983 15.2877 3.46155 13.863 2.07692ZM31.863 2.07692C30.4383 0.692301 28.7032 0 26.6575 0C24.5388 0 22.7854 0.710519 21.3973 2.13158C20.0091 3.55264 19.3151 5.3927 19.3151 7.65182C19.3151 10.4211 20.4109 12.5344 22.6027 13.9919L18 27H25.1233L32.0274 13.7733C32.6849 12.5344 33.1781 11.4777 33.5069 10.6032C33.8356 9.72874 34 8.74494 34 7.65182C34 5.31983 33.2877 3.46155 31.863 2.07692Z" fill="#ACB4BD"/>
</svg>
